<?xml version="1.0" encoding="utf-8"?>
<!-- Generator: Adobe Illustrator 25.4.1, SVG Export Plug-In . SVG Version: 6.00 Build 0)  -->
<svg version="1.1" id="Layer_1" xmlns="http://www.w3.org/2000/svg" xmlns:xlink="http://www.w3.org/1999/xlink" x="0px" y="0px"
	 viewBox="0 0 815 146.1" style="enable-background:new 0 0 815 146.1;" xml:space="preserve">
<style type="text/css">
	.st0{fill:url(#SVGID_1_);}
	.st1{fill:url(#SVGID_00000157987495641475786420000015465516028950855312_);}
	.st2{fill:url(#SVGID_00000111895190087724912430000000032244676509511594_);}
	.st3{fill:url(#SVGID_00000109029206975348742570000012440318594306780311_);}
	.st4{fill:url(#SVGID_00000147935360995727863790000005501236491942835117_);}
	.st5{fill:url(#SVGID_00000170981782441194146950000002272193656085143696_);}
	.st6{fill:url(#SVGID_00000134937182345615733480000012073133341770299268_);}
	.st7{fill:url(#SVGID_00000113317262466155869410000013152916977445640326_);}
	.st8{fill:url(#SVGID_00000060715512690346584260000010396563622112161715_);}
	.st9{fill:url(#SVGID_00000129915091423817788430000016888390519627132566_);}
	.st10{fill:url(#SVGID_00000005953973831140744620000003966955526563124927_);}
	.st11{fill:url(#SVGID_00000124143210940747172770000016059441258065370004_);}
	.st12{fill:#74CDDF;}
	.st13{fill:#EB9D23;}
	.st14{fill:url(#SVGID_00000001625723196038219580000010327716922703069084_);}
	.st15{fill:url(#SVGID_00000156551449235830945040000009945188016364689293_);}
	.st16{fill:url(#SVGID_00000035503124369563743980000011082733686928968855_);}
	.st17{fill:url(#SVGID_00000143605872231015985210000004119543303565188784_);}
	.st18{fill:url(#SVGID_00000062178267724983545460000012093197923791715458_);}
	.st19{fill:url(#SVGID_00000173146131557025176530000000545281482596500621_);}
	.st20{fill:url(#SVGID_00000174591074581766228820000002208434869212040614_);}
	.st21{fill:url(#SVGID_00000103256352514705774900000004606971365905803905_);}
	.st22{fill:url(#SVGID_00000096749599458495759830000014161117051521479327_);}
	.st23{fill:url(#SVGID_00000109003188037954563850000017578841711878061230_);}
	.st24{fill:url(#SVGID_00000137122227817220862250000014459829921993472699_);}
	.st25{fill:url(#SVGID_00000002345566160975128240000005523302962326626738_);}
	.st26{fill:url(#SVGID_00000129902742878161424200000000153059746220571265_);}
	.st27{fill:url(#SVGID_00000027576560158631739340000017100053161605504171_);}
	.st28{fill:url(#SVGID_00000085223054594042275330000011891443662662710181_);}
	.st29{fill:url(#SVGID_00000015337895569035341680000001947766850287152780_);}
	.st30{fill:url(#SVGID_00000138543682758761593120000004475147949379248299_);}
	.st31{fill:url(#SVGID_00000021118647433954714430000000675603642049243809_);}
	.st32{fill:url(#SVGID_00000030472451734912750220000011535715466220410283_);}
	.st33{fill:url(#SVGID_00000078728140826507106930000007564991157452199047_);}
	.st34{fill:url(#SVGID_00000025418814924792129450000018200443908060302770_);}
	.st35{fill:url(#SVGID_00000078760140556430755300000008350763518304948879_);}
	.st36{fill:url(#SVGID_00000060752243231614039210000010440358547274129847_);}
	.st37{fill:url(#SVGID_00000147206466525320483750000003244908090678542989_);}
	.st38{fill:url(#SVGID_00000108299849805047437160000012931270856979393981_);}
	.st39{fill:url(#SVGID_00000146470537178906358030000000152788883193051071_);}
	.st40{fill:url(#SVGID_00000111892775666301964730000016385446136532467389_);}
	.st41{fill:url(#SVGID_00000069397452837009602660000009187794904859141052_);}
	.st42{fill:#BFA310;}
</style>
<linearGradient id="SVGID_1_" gradientUnits="userSpaceOnUse" x1="54.9545" y1="265.2178" x2="54.9545" y2="160.4637" gradientTransform="matrix(1 0 0 -1 104 292)">
	<stop  offset="0" style="stop-color:#9D4A24"/>
	<stop  offset="0.2" style="stop-color:#E9D68A"/>
	<stop  offset="0.44" style="stop-color:#F3EB9A"/>
	<stop  offset="0.73" style="stop-color:#E9D68A"/>
	<stop  offset="1" style="stop-color:#9D4A24"/>
</linearGradient>
<path class="st0" d="M133.7,32.3c1.7-0.3,3.4-0.6,4.9-0.8c1.5-0.2,3-0.4,4.2-0.5s2.2-0.3,3-0.3c0.8-0.1,1.3-0.1,1.5-0.1
	c0.7-0.1,1.5,0.4,1.6,1.1c0,0.1,0,0.3,0,0.4v25.7l24-24.7c0.6-0.7,1.4-1.2,2.2-1.4c0.5-0.1,1.1-0.2,1.6-0.3c0.6-0.1,1.3-0.1,1.9-0.2
	c0.6,0,1.2-0.1,1.7-0.1h1.2c0.4-0.1,0.9,0.2,1,0.6c0.1,0.3,0,0.7-0.2,1l-24.1,22.5L184,86.1c0.2,0.2,0.3,0.6,0.1,0.9
	s-0.5,0.5-0.9,0.6c-0.6,0.1-1.3,0.2-2.1,0.3s-1.7,0.1-2.6,0.2c-0.8,0-1.6,0.1-2.3,0.1h-1.4c0,0-1.4,0.6-1.8,0l-24-30V87
	c-0.3,0.7-0.8,1.3-1.5,1.4l0,0c-0.6,0.1-1.2,0.2-1.8,0.3c-0.7,0.1-1.3,0.1-2,0.2s-1.2,0.1-1.8,0.3h-1.2c-0.6-0.2-1.1-0.6-1.2-1.2
	c0-0.1,0.6-0.2,0.6-0.2V39.3c0-0.9-0.1-1.8-0.5-2.7c-0.3-0.6-0.7-1-1.3-1.3s-1.2-0.4-1.9-0.4c-0.8,0-1.6,0.1-2.4,0.1L133.7,32.3z"/>
<linearGradient id="SVGID_00000093863791444184420350000005399148424688637089_" gradientUnits="userSpaceOnUse" x1="104.6" y1="265.7613" x2="104.6" y2="160.8772" gradientTransform="matrix(1 0 0 -1 104 292)">
	<stop  offset="0" style="stop-color:#9D4A24"/>
	<stop  offset="0.2" style="stop-color:#E9D68A"/>
	<stop  offset="0.44" style="stop-color:#F3EB9A"/>
	<stop  offset="0.73" style="stop-color:#E9D68A"/>
	<stop  offset="1" style="stop-color:#9D4A24"/>
</linearGradient>
<path style="fill:url(#SVGID_00000093863791444184420350000005399148424688637089_);" d="M203,80.7c-0.2,0.8-0.2,1.4-0.1,1.8
	c0,0.4,0.2,0.7,0.4,1c0.3,0.3,0.7,0.5,1.1,0.5c0.7,0.1,2.1,0.1,2.1,0.1h5.2c2.4,0,4.3,0,5.9-0.2c1.4-0.1,2.7-0.4,3.9-1.1
	c1.1-0.7,2.1-1.6,2.8-2.8c1-1.7,2-3.6,2.7-5.5l2.3,0.5c0,0.2-0.1,0.8-0.2,1.6c-0.1,0.9-0.3,1.9-0.5,3.1s-0.5,2.4-0.7,3.6
	c-0.3,1.2-0.5,2.3-0.8,3.2c-0.3,1-1.2,1.6-2.2,1.5c-1.1,0-2.5,0-4,0h-5.2c-1.8,0-3.9,0-6.1,0c-2.2,0-4.4,0-6.8,0h-7.5
	c-0.3,0-0.7-0.1-0.9-0.4c-0.1-0.2-0.2-0.5-0.2-0.7V39.5c0.1-0.9-0.1-1.7-0.5-2.5c-0.3-0.5-0.8-1-1.3-1.2c-0.6-0.3-1.3-0.4-1.9-0.4
	c-0.8,0-1.5,0.1-2.3,0.1l-0.3-2.7c0.7-0.1,1.7-0.3,3-0.5s2.7-0.4,4.1-0.6s2.8-0.3,4.1-0.5c1.3-0.1,2.4-0.2,3.1-0.2H220
	c1.1,0,2.3,0,3.5,0s2.5,0,4-0.1c0.4-0.1,0.8,0.3,0.9,0.7l0,0c0,0.4,0.1,1,0.1,1.8s0.1,1.6,0.1,2.5s0.1,1.8,0.1,2.7s0.1,1.8,0.1,2.5
	c0,0.8,0,1.5,0.1,2c0,0.5,0,0.9,0,1l-2.4,0.2c-0.4-1.8-1-3.6-1.7-5.4c-0.4-1.1-1.2-2.1-2.2-2.8c-1-0.6-2.2-1-3.3-1.1
	c-1.4-0.1-3.1-0.2-5.3-0.2h-8.9c0,0-0.9,0.1-1.2,0.2c-0.2,0-0.5,0.1-0.6,0.2c-0.1,0.2-0.2,0.4-1,0.6v1v20c3.5-0.1,5.9-0.3,8.2-0.4
	c2.3-0.1,4.2-0.2,5.9-0.3s3-0.1,4-0.2l1.9-0.1c0.4,0,0.7,0.1,1,0.4s0.4,0.7,0.4,1.1c0,0.6,0,1.3-0.1,1.9c-0.1,0.7-0.1,1.4-0.2,2.1
	l-19.9-0.7v20.1H203z"/>
<linearGradient id="SVGID_00000093879959329994021700000002125650801270165922_" gradientUnits="userSpaceOnUse" x1="152.05" y1="265.2046" x2="152.05" y2="160.2844" gradientTransform="matrix(1 0 0 -1 104 292)">
	<stop  offset="0" style="stop-color:#9D4A24"/>
	<stop  offset="0.2" style="stop-color:#E9D68A"/>
	<stop  offset="0.44" style="stop-color:#F3EB9A"/>
	<stop  offset="0.73" style="stop-color:#E9D68A"/>
	<stop  offset="1" style="stop-color:#9D4A24"/>
</linearGradient>
<path style="fill:url(#SVGID_00000093879959329994021700000002125650801270165922_);" d="M244.4,30.6c0.4,0,0.8,0.1,1.2,0.4
	c0.3,0.4,0.6,0.8,0.9,1.3l13.8,25L272,33.1c0.2-0.3,0.4-0.7,0.6-0.9c0.3-0.3,0.6-0.4,1-0.5c0.5-0.1,1-0.2,1.5-0.3l1.5-0.2
	c0.5,0,0.9-0.1,1.3-0.1h0.9c0.6,0,0.8,0.2,0.8,0.5s-0.1,0.7-0.3,0.9L262,62v25.1c0.1,0.7-0.4,1.3-1.1,1.4l0,0
	c-0.6,0.1-1.2,0.2-1.8,0.3c-0.7,0.1-1.3,0.1-2,0.2s-1.2,0.1-1.7,0.1h-1.2c-0.6,0-1.1-0.4-1.1-1c0-0.1,0-0.1,0-0.2v-25l-13.4-24.2
	c-0.6-1.2-1.3-2.2-2.3-3.1c-0.8-0.6-1.7-0.9-2.6-0.8c-0.7,0-1.3,0.1-2,0.2l-0.3-2.7c1.4-0.3,2.8-0.5,4.1-0.8
	c1.3-0.2,2.5-0.4,3.6-0.5s2-0.3,2.8-0.3C243.8,30.6,244.2,30.6,244.4,30.6z"/>
<linearGradient id="SVGID_00000040573864729876082360000011542635420543925137_" gradientUnits="userSpaceOnUse" x1="230.3015" y1="265.6538" x2="230.3015" y2="160.3738" gradientTransform="matrix(1 0 0 -1 104 292)">
	<stop  offset="0" style="stop-color:#9D4A24"/>
	<stop  offset="0.2" style="stop-color:#E9D68A"/>
	<stop  offset="0.44" style="stop-color:#F3EB9A"/>
	<stop  offset="0.73" style="stop-color:#E9D68A"/>
	<stop  offset="1" style="stop-color:#9D4A24"/>
</linearGradient>
<path style="fill:url(#SVGID_00000040573864729876082360000011542635420543925137_);" d="M347.6,44.6c-0.3-1.6-0.8-3.2-1.6-4.7
	c-0.7-1.3-1.6-2.4-2.7-3.3c-1.1-0.8-2.3-1.5-3.7-1.9c-1.4-0.4-2.9-0.6-4.4-0.6s-3,0.2-4.4,0.6c-1.4,0.3-2.6,1-3.7,1.8
	s-1.9,1.9-2.5,3.2c-0.7,1.4-1,3-1,4.6c0,1.4,0.3,2.9,1.1,4.1c0.8,1.2,1.8,2.2,3,3c1.4,0.9,2.8,1.6,4.4,2.2c1.6,0.7,3.4,1.3,5.1,2
	c2,0.8,3.9,1.6,5.9,2.4c1.9,0.8,3.7,1.9,5.3,3.2c1.5,1.3,2.8,2.8,3.8,4.6c1,2,1.5,4.3,1.4,6.5c0,2-0.3,4.1-1,6
	c-0.6,1.7-1.5,3.2-2.6,4.6c-1.1,1.3-2.5,2.4-4,3.3s-3.2,1.6-4.9,2.1c-1.8,0.6-3.6,0.9-5.4,1.2c-1.9,0.2-3.7,0.3-5.6,0.3
	c-2.2,0-4.4-0.2-6.5-0.4c-2.2-0.3-4.4-0.6-6.5-1.1c-0.3,0-0.5-0.2-0.7-0.4s-0.3-0.4-0.3-0.6c-0.1-0.7-0.1-1.7-0.2-3
	s-0.1-2.7-0.2-4.1s-0.1-2.6-0.1-3.7s0-1.8,0-2l2.5-0.3c0.2,1.8,0.7,3.5,1.5,5.1c0.8,1.4,1.8,2.6,3.1,3.5c1.3,1,2.7,1.7,4.2,2.1
	c1.7,0.5,3.4,0.7,5.1,0.7c1.6,0,3.2-0.2,4.8-0.6c1.5-0.3,2.9-1,4.1-1.8s2.2-1.9,2.9-3.2c0.8-1.5,1.1-3.1,1.1-4.8
	c0-1.4-0.4-2.8-1.1-3.9c-0.8-1.1-1.8-2.1-3-2.9c-1.4-0.9-2.8-1.6-4.3-2.3l-5-2c-2-0.8-4-1.6-5.9-2.5c-1.9-0.8-3.7-1.9-5.3-3.3
	c-1.6-1.3-2.8-2.9-3.8-4.7c-1-2.1-1.5-4.4-1.5-6.7c-0.1-2.8,0.6-5.6,1.9-8.1c1.2-2.1,2.9-3.9,5-5.2c2.1-1.4,4.5-2.3,7-2.8
	c2.6-0.6,5.3-0.8,8-0.8c2,0,4,0.2,5.9,0.4c2,0.3,4,0.6,6,1.1c0.3,0,0.5,0.2,0.7,0.4s0.3,0.4,0.3,0.7c0.1,0.7,0.1,1.7,0.2,2.9
	s0.1,2.5,0.2,3.8s0.1,2.4,0.1,3.4s0.1,1.6,0.1,1.8L347.6,44.6z"/>
<linearGradient id="SVGID_00000083082301190614568730000009349988483630550146_" gradientUnits="userSpaceOnUse" x1="286.55" y1="265.6538" x2="286.55" y2="160.3738" gradientTransform="matrix(1 0 0 -1 104 292)">
	<stop  offset="0" style="stop-color:#9D4A24"/>
	<stop  offset="0.2" style="stop-color:#E9D68A"/>
	<stop  offset="0.44" style="stop-color:#F3EB9A"/>
	<stop  offset="0.73" style="stop-color:#E9D68A"/>
	<stop  offset="1" style="stop-color:#9D4A24"/>
</linearGradient>
<path style="fill:url(#SVGID_00000083082301190614568730000009349988483630550146_);" d="M392.1,29.7c3.9,0,7.8,0.6,11.5,2
	c3.3,1.2,6.3,3.2,8.7,5.7c2.5,2.6,4.4,5.7,5.6,9.1c1.4,3.9,2.1,8.1,2,12.3c0.1,4.5-0.7,9-2.2,13.2c-1.3,3.6-3.4,7-6.2,9.7
	c-2.8,2.7-6.1,4.7-9.7,6c-4.1,1.4-8.4,2.1-12.7,2c-3.9,0.1-7.8-0.6-11.5-2c-3.3-1.3-6.3-3.3-8.8-5.8c-2.5-2.7-4.4-5.8-5.6-9.3
	c-1.4-4-2-8.2-2-12.4c-0.1-4.5,0.6-9,2.2-13.2c1.3-3.6,3.5-6.9,6.2-9.6c2.8-2.6,6.1-4.6,9.7-5.8C383.5,30.3,387.8,29.6,392.1,29.7z
	 M390,33.8c-5.6-0.2-10.9,2.5-13.9,7.2c-1.5,2.3-2.6,4.9-3.2,7.6c-0.7,2.9-1,5.9-1,8.9c0,3.4,0.4,6.8,1.1,10.2
	c0.7,3.2,1.9,6.2,3.5,9c1.6,2.6,3.7,4.8,6.3,6.4c2.8,1.7,6,2.5,9.3,2.4c2.9,0.1,5.8-0.6,8.3-2c2.3-1.3,4.2-3.2,5.6-5.4
	c1.5-2.4,2.6-5,3.2-7.7c0.7-3,1-6,1-9c0-3.4-0.4-6.8-1.1-10.1c-0.7-3.1-1.8-6.1-3.5-8.8c-1.6-2.5-3.7-4.7-6.3-6.2
	C396.5,34.6,393.3,33.8,390,33.8L390,33.8z"/>
<linearGradient id="SVGID_00000034803137407279504130000003885136514575632318_" gradientUnits="userSpaceOnUse" x1="342.95" y1="263.8528" x2="342.95" y2="161.8674" gradientTransform="matrix(1 0 0 -1 104 292)">
	<stop  offset="0" style="stop-color:#9D4A24"/>
	<stop  offset="0.2" style="stop-color:#E9D68A"/>
	<stop  offset="0.44" style="stop-color:#F3EB9A"/>
	<stop  offset="0.73" style="stop-color:#E9D68A"/>
	<stop  offset="1" style="stop-color:#9D4A24"/>
</linearGradient>
<path style="fill:url(#SVGID_00000034803137407279504130000003885136514575632318_);" d="M441,80.8c0,0.6,0,1.2,0.1,1.8
	c0,0.4,0.2,0.7,0.4,1c0.3,0.3,0.6,0.4,1,0.5c0.7,0.1,1.4,0.1,2,0.1h4.8c2.5,0,4.6-0.1,6.3-0.2c3-0.1,5.7-1.7,7.2-4.3
	c1.1-1.9,2.1-3.8,2.9-5.8l2.4,0.5c-0.1,0.6-0.1,1.2-0.2,1.8c-0.2,1-0.4,2.1-0.6,3.3c-0.2,1.2-0.5,2.5-0.8,3.8s-0.6,2.4-0.9,3.4
	s-1.3,1.7-2.4,1.6c-2.4,0-5.4-0.1-9-0.1s-7.9,0-13,0h-8c-0.4,0-0.7-0.1-0.9-0.4c-0.2-0.2-0.2-0.5-0.2-0.8V40.4
	c0-0.9-0.1-1.8-0.5-2.6c-0.3-0.6-0.7-1-1.3-1.3c-0.6-0.3-1.2-0.4-1.9-0.4c-0.8,0-1.6,0.1-2.3,0.1l-0.3-2.6c1.7-0.3,3.4-0.6,5-0.8
	s2.9-0.4,4.2-0.5c1.2-0.1,2.2-0.3,3-0.3c0.8-0.1,1.3-0.1,1.6-0.1c0.7-0.1,1.4,0.4,1.5,1.1c0,0.1,0,0.2,0,0.4v47.4H441z"/>
<linearGradient id="SVGID_00000048500241725680027440000002441320903984331137_" gradientUnits="userSpaceOnUse" x1="392.0564" y1="265.43" x2="392.0564" y2="160.13" gradientTransform="matrix(1 0 0 -1 104 292)">
	<stop  offset="0" style="stop-color:#9D4A24"/>
	<stop  offset="0.2" style="stop-color:#E9D68A"/>
	<stop  offset="0.44" style="stop-color:#F3EB9A"/>
	<stop  offset="0.73" style="stop-color:#E9D68A"/>
	<stop  offset="1" style="stop-color:#9D4A24"/>
</linearGradient>
<path style="fill:url(#SVGID_00000048500241725680027440000002441320903984331137_);" d="M486,70.5c-0.1,2.1,0.2,4.1,0.9,6.1
	c0.6,1.5,1.5,2.9,2.7,4c1.2,1,2.6,1.8,4.1,2.2c1.6,0.4,3.3,0.7,5,0.7c2.3,0,4.5-0.4,6.7-1.1c2.3-0.7,4.5-1.7,6.7-2.7V32.9
	c0-0.7,0.5-1.3,1.1-1.3l0,0c0.5-0.1,1.1-0.2,1.8-0.3l2-0.2l1.8-0.1c0.5,0,0.9,0,1.2,0c0.8,0,1.2,0.4,1.2,1.2V87
	c0.1,0.7-0.4,1.3-1.1,1.4l0,0c-0.6,0.1-1.1,0.2-1.8,0.3c-0.6,0.1-1.3,0.1-1.8,0.2c-0.6,0-1.1,0.1-1.6,0.1h-0.7
	c-0.7,0-1.1-0.4-1.2-1.2l-0.3-4c-1.5,0.8-3,1.6-4.7,2.4c-1.6,0.7-3.3,1.3-4.9,1.9c-1.7,0.5-3.3,0.9-5.1,1.3
	c-1.7,0.3-3.4,0.5-5.1,0.5c-2.1,0-4.1-0.3-6.1-0.9c-1.8-0.6-3.5-1.5-4.9-2.7c-1.5-1.3-2.6-2.9-3.4-4.6c-0.9-2.1-1.3-4.4-1.3-6.6
	V39.3c0-0.8-0.1-1.5-0.3-2.2c-0.1-0.5-0.4-1-0.8-1.4c-0.3-0.3-0.8-0.6-1.2-0.7c-0.5-0.1-1-0.2-1.6-0.2c-0.7,0-1.4,0.1-2.1,0.2
	l-0.3-2.7c1.7-0.3,3.4-0.6,4.9-0.8c1.5-0.2,3-0.4,4.2-0.5s2.2-0.3,3-0.3c0.8-0.1,1.3-0.1,1.5-0.1c0.7-0.1,1.5,0.4,1.6,1.1
	c0,0.1,0,0.3,0,0.4v38.4H486z"/>
<linearGradient id="SVGID_00000099647721800859310160000017443186314065172392_" gradientUnits="userSpaceOnUse" x1="451.9499" y1="265.7987" x2="451.9499" y2="159.8705" gradientTransform="matrix(1 0 0 -1 104 292)">
	<stop  offset="0" style="stop-color:#9D4A24"/>
	<stop  offset="0.2" style="stop-color:#E9D68A"/>
	<stop  offset="0.44" style="stop-color:#F3EB9A"/>
	<stop  offset="0.73" style="stop-color:#E9D68A"/>
	<stop  offset="1" style="stop-color:#9D4A24"/>
</linearGradient>
<path style="fill:url(#SVGID_00000099647721800859310160000017443186314065172392_);" d="M545.1,35.1c-2.1,0-3.9,0.1-5.2,0.2
	c-1.2,0.1-2.4,0.5-3.4,1.1c-1,0.8-1.8,1.8-2.3,3c-0.7,1.9-1.3,3.8-1.7,5.8L530,45c0-0.1,0-0.6,0-1.1c0-0.6,0.1-1.3,0.1-2.1
	s0.1-1.8,0.2-2.7c0.1-1,0.1-1.9,0.2-2.9c0.1-0.9,0.1-1.8,0.2-2.6c0-0.8,0.1-1.4,0.2-1.9c0-0.4,0.4-0.8,0.8-0.8h0.1
	c3,0.1,5.8,0.1,8.6,0.2s5.3,0,7.6,0h16.4c2.3,0,4.9,0,7.6,0s5.7-0.1,8.6-0.2c0.4,0,0.8,0.3,0.8,0.7l0,0c0.1,0.6,0.1,1.3,0.1,1.9
	c0,0.8,0.1,1.7,0.1,2.6c0.1,0.9,0.1,1.9,0.1,2.9s0.1,1.9,0.1,2.7s0.1,1.5,0.1,2.1s0,1,0,1.1l-2.5,0.2c-0.4-2-1-3.9-1.7-5.8
	c-0.4-1.2-1.2-2.2-2.2-3c-1-0.7-2.2-1.1-3.4-1.1c-1.4-0.1-3.1-0.2-5.3-0.2H561v52c0.1,0.7-0.5,1.3-1.2,1.4l0,0
	c-0.6,0.1-1.2,0.2-1.9,0.3c-0.7,0.1-1.3,0.1-2,0.2s-1.2,0.1-1.8,0.1h-2c-0.8,0-1.2-0.4-1.2-1.2V35.1H545.1z"/>
<linearGradient id="SVGID_00000167379786393651599300000007716432287577844397_" gradientUnits="userSpaceOnUse" x1="488.4064" y1="265.43" x2="488.4064" y2="160.13" gradientTransform="matrix(1 0 0 -1 104 292)">
	<stop  offset="0" style="stop-color:#9D4A24"/>
	<stop  offset="0.2" style="stop-color:#E9D68A"/>
	<stop  offset="0.44" style="stop-color:#F3EB9A"/>
	<stop  offset="0.73" style="stop-color:#E9D68A"/>
	<stop  offset="1" style="stop-color:#9D4A24"/>
</linearGradient>
<path style="fill:url(#SVGID_00000167379786393651599300000007716432287577844397_);" d="M584.8,32.1c1.7-0.3,3.4-0.6,4.9-0.8
	c1.6-0.2,2.9-0.4,4.2-0.5c1.2-0.1,2.2-0.3,3-0.3c0.8-0.1,1.3-0.1,1.5-0.1c0.7-0.1,1.4,0.4,1.6,1.1c0,0.1,0,0.3,0,0.4v55.2
	c0.1,0.7-0.4,1.3-1.1,1.4l0,0c-0.6,0.1-1.2,0.2-1.8,0.3c-0.7,0.1-1.3,0.1-2,0.2s-1.2,0.1-1.7,0.1h-1.2c-0.8,0-1.2-0.4-1.2-1.2V39.2
	c0-0.9-0.1-1.9-0.5-2.7c-0.3-0.6-0.7-1.1-1.3-1.3c-0.6-0.3-1.2-0.4-1.9-0.4c-0.8,0-1.6,0.1-2.3,0.2L584.8,32.1z"/>
<linearGradient id="SVGID_00000014624086924713467630000014292539414250835367_" gradientUnits="userSpaceOnUse" x1="537.2" y1="265.6538" x2="537.2" y2="160.3738" gradientTransform="matrix(1 0 0 -1 104 292)">
	<stop  offset="0" style="stop-color:#9D4A24"/>
	<stop  offset="0.2" style="stop-color:#E9D68A"/>
	<stop  offset="0.44" style="stop-color:#F3EB9A"/>
	<stop  offset="0.73" style="stop-color:#E9D68A"/>
	<stop  offset="1" style="stop-color:#9D4A24"/>
</linearGradient>
<path style="fill:url(#SVGID_00000014624086924713467630000014292539414250835367_);" d="M642.7,29.7c3.9,0,7.8,0.6,11.5,2
	c3.3,1.2,6.3,3.2,8.7,5.7c2.5,2.6,4.4,5.7,5.6,9.1c1.4,3.9,2.1,8.1,2,12.3c0.1,4.5-0.7,9-2.2,13.2c-1.3,3.7-3.5,7-6.3,9.7
	s-6.1,4.7-9.7,6c-4.1,1.4-8.4,2.1-12.7,2c-3.9,0.1-7.8-0.6-11.5-2c-3.3-1.3-6.3-3.3-8.7-5.9c-2.5-2.7-4.4-5.8-5.6-9.3
	c-1.3-4-2-8.2-1.9-12.4c-0.1-4.5,0.7-8.9,2.2-13.1c1.3-3.6,3.5-6.9,6.2-9.6c2.8-2.6,6.1-4.6,9.7-5.8
	C634.1,30.3,638.4,29.6,642.7,29.7z M640,33.8c-2.9-0.1-5.7,0.6-8.3,2c-2.3,1.3-4.2,3.1-5.7,5.3c-1.5,2.3-2.6,4.9-3.2,7.6
	c-0.7,2.9-1,5.9-1,8.9c0,3.4,0.4,6.8,1.1,10.2c0.7,3.2,1.9,6.2,3.5,9c1.6,2.6,3.7,4.8,6.3,6.4c2.8,1.7,6,2.5,9.3,2.4
	c2.9,0.1,5.8-0.6,8.3-2c2.3-1.3,4.2-3.2,5.7-5.4c1.5-2.4,2.6-5,3.2-7.8c0.7-3,1-6,1-9c0-3.4-0.4-6.8-1.1-10.1
	c-0.7-3.1-1.9-6.1-3.5-8.8c-1.6-2.5-3.7-4.7-6.3-6.2C646.5,34.6,643.2,33.8,640,33.8L640,33.8z"/>
<linearGradient id="SVGID_00000044892872794220394360000011703247170404655804_" gradientUnits="userSpaceOnUse" x1="599.1455" y1="265.6538" x2="599.1455" y2="160.3638" gradientTransform="matrix(1 0 0 -1 104 292)">
	<stop  offset="0" style="stop-color:#9D4A24"/>
	<stop  offset="0.2" style="stop-color:#E9D68A"/>
	<stop  offset="0.44" style="stop-color:#F3EB9A"/>
	<stop  offset="0.73" style="stop-color:#E9D68A"/>
	<stop  offset="1" style="stop-color:#9D4A24"/>
</linearGradient>
<path style="fill:url(#SVGID_00000044892872794220394360000011703247170404655804_);" d="M687.1,29.3c0.3,0,0.6,0.1,0.8,0.3l0.7,0.8
	l34,45.1l-1.2-44.2c0-0.4,0.3-0.6,0.8-0.6s1.4-0.2,2.4-0.3c1-0.1,1.9-0.1,2.9-0.2c0.5,0,0.8,0.2,0.8,0.7l-1.2,48v9
	c0,0.3-0.3,0.6-0.8,0.6c-0.5,0.1-1.3,0.1-2,0.1s-1.5,0.1-2.2,0.1c-0.2,0-0.5,0-0.7-0.2s-0.4-0.3-0.5-0.6l-34.3-45.5l1.2,45.3
	c0,0.4-0.3,0.6-0.8,0.6c-0.8,0.1-1.6,0.2-2.4,0.2c-1,0.1-2,0.1-2.8,0.1c-0.5,0-0.8-0.3-0.8-0.7l1.2-51.3l-4-5.5
	c-0.2-0.3-0.3-0.6-0.1-0.9s0.5-0.5,0.8-0.5c0.5-0.1,1.2-0.2,2-0.3l2.5-0.2l2.2-0.2C686.3,29.3,686.8,29.3,687.1,29.3z"/>
<linearGradient id="SVGID_00000039812397094987153750000014095328367462757259_" gradientUnits="userSpaceOnUse" x1="652.5452" y1="265.6538" x2="652.5452" y2="160.3738" gradientTransform="matrix(1 0 0 -1 104 292)">
	<stop  offset="0" style="stop-color:#9D4A24"/>
	<stop  offset="0.2" style="stop-color:#E9D68A"/>
	<stop  offset="0.44" style="stop-color:#F3EB9A"/>
	<stop  offset="0.73" style="stop-color:#E9D68A"/>
	<stop  offset="1" style="stop-color:#9D4A24"/>
</linearGradient>
<path style="fill:url(#SVGID_00000039812397094987153750000014095328367462757259_);" d="M770.2,44.6c-0.3-1.6-0.8-3.2-1.6-4.7
	c-0.7-1.3-1.6-2.4-2.7-3.3s-2.3-1.5-3.7-1.9s-2.9-0.6-4.4-0.6s-3,0.2-4.4,0.6c-1.3,0.4-2.6,1-3.7,1.8s-2,1.9-2.6,3.2
	c-0.7,1.4-1,3-1,4.6c0,1.4,0.4,2.9,1.1,4.1c0.8,1.2,1.8,2.2,3,3c1.4,0.9,2.8,1.6,4.3,2.2c1.6,0.7,3.3,1.3,5.1,2
	c2,0.8,3.9,1.6,5.9,2.4c1.9,0.8,3.7,1.9,5.3,3.2c1.6,1.2,2.9,2.8,3.8,4.6c1,2,1.5,4.3,1.5,6.5c0,2-0.3,4.1-1,6
	c-0.6,1.7-1.5,3.2-2.7,4.6c-1.1,1.3-2.5,2.4-4,3.3s-3.2,1.6-4.9,2.1c-1.8,0.6-3.6,0.9-5.5,1.2c-1.9,0.2-3.7,0.3-5.6,0.3
	c-2.2,0-4.4-0.1-6.6-0.4c-2.2-0.3-4.4-0.6-6.5-1.1c-0.3,0-0.5-0.2-0.7-0.4c-0.2-0.2-0.3-0.4-0.3-0.6c-0.1-0.7-0.1-1.7-0.2-3
	c-0.1-1.3-0.1-2.7-0.2-4.1c-0.1-1.4-0.1-2.6-0.1-3.7s-0.1-1.8-0.1-2l2.5-0.3c0.2,1.8,0.7,3.5,1.5,5.1c0.7,1.4,1.8,2.6,3,3.6
	c1.3,1,2.7,1.7,4.2,2.1c1.7,0.5,3.4,0.7,5.1,0.7c1.6,0,3.2-0.2,4.8-0.6c1.5-0.4,2.9-1,4.1-1.8s2.2-1.9,2.9-3.2
	c0.8-1.5,1.1-3.1,1.1-4.8c0-1.4-0.4-2.8-1.1-3.9c-0.8-1.1-1.8-2.1-3-2.9c-1.4-0.9-2.8-1.6-4.3-2.3l-5-2c-2-0.8-3.9-1.6-5.9-2.5
	c-1.9-0.8-3.7-1.9-5.3-3.3c-1.6-1.3-2.9-2.9-3.8-4.7c-1-2.1-1.5-4.4-1.5-6.7c-0.1-2.8,0.6-5.6,1.9-8.1c1.2-2.1,2.9-3.9,5-5.2
	c2.1-1.4,4.5-2.3,7-2.8c2.6-0.6,5.3-0.8,8-0.8c2,0,4,0.2,5.9,0.4c2,0.3,4,0.6,6,1.1c0.3,0.1,0.5,0.2,0.7,0.4s0.3,0.4,0.3,0.7
	c0.1,0.7,0.1,1.7,0.2,2.9c0.1,1.2,0.1,2.5,0.2,3.8c0.1,1.3,0.1,2.4,0.2,3.4c0,1,0,1.6,0,1.8L770.2,44.6z"/>
<polygon class="st12" points="50,92.7 50,107.9 51,107.9 51,92.7 "/>
<path class="st13" d="M64.2,116.1L64.2,116.1L64.2,116.1z"/>
<linearGradient id="SVGID_00000124849777229373265660000003900350447882952382_" gradientUnits="userSpaceOnUse" x1="-33.4" y1="244.45" x2="0.7" y2="244.45" gradientTransform="matrix(1 0 0 -1 104 292)">
	<stop  offset="0" style="stop-color:#50A5DB"/>
	<stop  offset="1" style="stop-color:#304980"/>
</linearGradient>
<path style="fill:url(#SVGID_00000124849777229373265660000003900350447882952382_);" d="M76.4,36.7c4.4,0,8.7,0.5,13,1.5
	c5.5,1.1,10.7,3.4,15.3,6.6L76.3,58.4L70.6,37C72.6,36.8,74.4,36.7,76.4,36.7z"/>
<linearGradient id="SVGID_00000103965668585267593720000002039494142024092577_" gradientUnits="userSpaceOnUse" x1="-33.8772" y1="215.75" x2="-24.5264" y2="215.75" gradientTransform="matrix(1 0 0 -1 104 292)">
	<stop  offset="0" style="stop-color:#50A5DB"/>
	<stop  offset="1" style="stop-color:#304980"/>
</linearGradient>
<polygon style="fill:url(#SVGID_00000103965668585267593720000002039494142024092577_);" points="77,58.4 77,115.5 71,94.1 71,37 
	"/>
<linearGradient id="SVGID_00000148647234779259678490000001767494565169538977_" gradientUnits="userSpaceOnUse" x1="-28.05" y1="211.85" x2="-4.999924e-02" y2="211.85" gradientTransform="matrix(1 0 0 -1 104 292)">
	<stop  offset="0.19" style="stop-color:#395B99"/>
	<stop  offset="1" style="stop-color:#4369B1"/>
</linearGradient>
<polygon style="fill:url(#SVGID_00000148647234779259678490000001767494565169538977_);" points="104,45.2 104,101.6 76,115.1 
	76,58.6 "/>
<linearGradient id="SVGID_00000041279059074994256410000018057257283670722221_" gradientUnits="userSpaceOnUse" x1="-49.2802" y1="233.1737" x2="-26.1602" y2="225.7437" gradientTransform="matrix(1 0 0 -1 104 292)">
	<stop  offset="0" style="stop-color:#74CDDF"/>
	<stop  offset="1" style="stop-color:#007EAA"/>
</linearGradient>
<path style="fill:url(#SVGID_00000041279059074994256410000018057257283670722221_);" d="M71,53.4l4.8,21.5l-28.4-7.8h-0.1
	C51.4,59.6,60.6,54.6,71,53.4z"/>
<linearGradient id="SVGID_00000072248081056005538700000004288584647550209155_" gradientUnits="userSpaceOnUse" x1="-56.05" y1="200.75" x2="-28.05" y2="200.75" gradientTransform="matrix(1 0 0 -1 104 292)">
	<stop  offset="0" style="stop-color:#74CDDF"/>
	<stop  offset="1" style="stop-color:#007EAA"/>
</linearGradient>
<polygon style="fill:url(#SVGID_00000072248081056005538700000004288584647550209155_);" points="76,74.8 76,115.3 48,107.7 
	48,67.2 "/>
<rect x="64" y="101.1" class="st13" width="1" height="15"/>
<g transform="translate(66 49.18)">
</g>
<g transform="translate(66 49.18)">
</g>
<g transform="translate(68 43.18)">
</g>
<g transform="translate(68 43.18)">
</g>
<g transform="translate(68 44.18)">
</g>
<g transform="translate(68 44.18)">
</g>
<g transform="translate(67 45.18)">
</g>
<g transform="translate(67 45.18)">
</g>
<g transform="translate(67 46.18)">
</g>
<g transform="translate(67 46.18)">
</g>
<g transform="translate(67 47.18)">
</g>
<g transform="translate(67 47.18)">
</g>
<g transform="translate(66 48.18)">
</g>
<g transform="translate(66 48.18)">
</g>
<linearGradient id="SVGID_00000041279438216639514000000013338809020872372113_" gradientUnits="userSpaceOnUse" x1="9.11" y1="178.6" x2="6.65" y2="178.6" gradientTransform="matrix(1 0 0 -1 104 292)">
	<stop  offset="0" style="stop-color:#ED2926"/>
	<stop  offset="1" style="stop-color:#BE2126"/>
</linearGradient>
<path style="fill:url(#SVGID_00000041279438216639514000000013338809020872372113_);" d="M113,101.9v15.2c0,2.7-0.7,5.4-2,7.8v-15.2
	C112.3,107.3,113,104.7,113,101.9z"/>
<linearGradient id="SVGID_00000110429463389500032130000006464356276912152704_" gradientUnits="userSpaceOnUse" x1="-21.4817" y1="193" x2="8.9189" y2="193" gradientTransform="matrix(1 0 0 -1 104 292)">
	<stop  offset="0" style="stop-color:#ED2A26"/>
	<stop  offset="1" style="stop-color:#ED2926"/>
</linearGradient>
<path style="fill:url(#SVGID_00000110429463389500032130000006464356276912152704_);" d="M106.2,88.3c6.6,5.8,8.8,13.9,4.8,21.4
	l-28.4-7.8L106.2,88.3z"/>
<linearGradient id="SVGID_00000129179404588008948550000006057891705973501867_" gradientUnits="userSpaceOnUse" x1="-22.4377" y1="184.4012" x2="9.151" y2="172.5307" gradientTransform="matrix(1 0 0 -1 104 292)">
	<stop  offset="0" style="stop-color:#ED2926"/>
	<stop  offset="1" style="stop-color:#BE2126"/>
</linearGradient>
<polygon style="fill:url(#SVGID_00000129179404588008948550000006057891705973501867_);" points="111,109.7 111,124.7 83,117.1 
	83,102.1 "/>
<linearGradient id="SVGID_00000075862641276595293880000006200592534542168972_" gradientUnits="userSpaceOnUse" x1="8.77" y1="193.85" x2="6.33" y2="193.85" gradientTransform="matrix(1 0 0 -1 104 292)">
	<stop  offset="0" style="stop-color:#ED2926"/>
	<stop  offset="1" style="stop-color:#BE2126"/>
</linearGradient>
<path style="fill:url(#SVGID_00000075862641276595293880000006200592534542168972_);" d="M113,86.7v15.1c0,2.7-0.7,5.4-2,7.8V94.4
	C112.3,92,113,89.4,113,86.7z"/>
<linearGradient id="SVGID_00000085963665567627226360000015026421185274586516_" gradientUnits="userSpaceOnUse" x1="-21.1499" y1="208.3" x2="9.2507" y2="208.3" gradientTransform="matrix(1 0 0 -1 104 292)">
	<stop  offset="0" style="stop-color:#ED2926"/>
	<stop  offset="1" style="stop-color:#BE2126"/>
</linearGradient>
<path style="fill:url(#SVGID_00000085963665567627226360000015026421185274586516_);" d="M106.5,73c6.6,5.8,8.8,13.9,4.8,21.4
	l-28.4-7.7L106.5,73z"/>
<linearGradient id="SVGID_00000113350715730953284060000006975529491400307888_" gradientUnits="userSpaceOnUse" x1="-22.4377" y1="199.7012" x2="9.151" y2="187.8308" gradientTransform="matrix(1 0 0 -1 104 292)">
	<stop  offset="0" style="stop-color:#ED2926"/>
	<stop  offset="1" style="stop-color:#BE2126"/>
</linearGradient>
<polygon style="fill:url(#SVGID_00000113350715730953284060000006975529491400307888_);" points="111,94.4 111,109.4 83,101.8 
	83,86.8 "/>
<linearGradient id="SVGID_00000018943718657797225290000017151904614546279816_" gradientUnits="userSpaceOnUse" x1="8.65" y1="209.4" x2="6.2" y2="209.4" gradientTransform="matrix(1 0 0 -1 104 292)">
	<stop  offset="0" style="stop-color:#ED2926"/>
	<stop  offset="1" style="stop-color:#BE2126"/>
</linearGradient>
<path style="fill:url(#SVGID_00000018943718657797225290000017151904614546279816_);" d="M113,71.1v15.2c0,2.7-0.7,5.4-2,7.8V78.9
	C112.3,76.4,113,73.8,113,71.1z"/>
<linearGradient id="SVGID_00000166674142691175286230000018398587019020421023_" gradientUnits="userSpaceOnUse" x1="-21" y1="223.9" x2="9.4119" y2="223.9" gradientTransform="matrix(1 0 0 -1 104 292)">
	<stop  offset="0" style="stop-color:#ED2926"/>
	<stop  offset="1" style="stop-color:#BE2126"/>
</linearGradient>
<path style="fill:url(#SVGID_00000166674142691175286230000018398587019020421023_);" d="M106.7,57.4c6.6,5.8,8.8,13.9,4.8,21.4
	L83,71.1L106.7,57.4z"/>
<linearGradient id="SVGID_00000102532313421769462460000007589683561171800756_" gradientUnits="userSpaceOnUse" x1="-22.4465" y1="215.2514" x2="9.1435" y2="203.3867" gradientTransform="matrix(1 0 0 -1 104 292)">
	<stop  offset="0" style="stop-color:#ED2926"/>
	<stop  offset="1" style="stop-color:#BE2126"/>
</linearGradient>
<polygon style="fill:url(#SVGID_00000102532313421769462460000007589683561171800756_);" points="111,78.9 111,93.8 83,86.2 
	83,71.2 "/>
<linearGradient id="SVGID_00000117656329251233405600000016914236455343527080_" gradientUnits="userSpaceOnUse" x1="8.97" y1="224.85" x2="6.52" y2="224.85" gradientTransform="matrix(1 0 0 -1 104 292)">
	<stop  offset="0" style="stop-color:#ED2926"/>
	<stop  offset="1" style="stop-color:#BE2126"/>
</linearGradient>
<path style="fill:url(#SVGID_00000117656329251233405600000016914236455343527080_);" d="M113,55.7v15.2c0,2.7-0.7,5.4-2,7.7V63.4
	C112.3,61.1,113,58.4,113,55.7z"/>
<linearGradient id="SVGID_00000118369820918699292500000005469930861392507787_" gradientUnits="userSpaceOnUse" x1="-21.3499" y1="239.3" x2="9.0507" y2="239.3" gradientTransform="matrix(1 0 0 -1 104 292)">
	<stop  offset="0" style="stop-color:#ED2926"/>
	<stop  offset="1" style="stop-color:#BE2126"/>
</linearGradient>
<path style="fill:url(#SVGID_00000118369820918699292500000005469930861392507787_);" d="M106.3,42c6.6,5.8,8.8,13.9,4.8,21.4
	l-28.4-7.8L106.3,42z"/>
<linearGradient id="SVGID_00000160880673586807911610000001188183181048093057_" gradientUnits="userSpaceOnUse" x1="-22.4262" y1="230.6457" x2="9.1428" y2="218.7851" gradientTransform="matrix(1 0 0 -1 104 292)">
	<stop  offset="0" style="stop-color:#ED2926"/>
	<stop  offset="1" style="stop-color:#BE2126"/>
</linearGradient>
<polygon style="fill:url(#SVGID_00000160880673586807911610000001188183181048093057_);" points="111,63.5 111,78.5 83,70.8 
	83,55.9 "/>
<linearGradient id="SVGID_00000163759577402288809440000008361981051293950887_" gradientUnits="userSpaceOnUse" x1="9.24" y1="240.2" x2="6.8" y2="240.2" gradientTransform="matrix(1 0 0 -1 104 292)">
	<stop  offset="0" style="stop-color:#ED2926"/>
	<stop  offset="1" style="stop-color:#BE2126"/>
</linearGradient>
<path style="fill:url(#SVGID_00000163759577402288809440000008361981051293950887_);" d="M113,40.3v15.2c0,2.7-0.7,5.4-2,7.8V48.1
	C112.3,45.7,113,43,113,40.3z"/>
<linearGradient id="SVGID_00000103974645738951890510000018434180699141111693_" gradientUnits="userSpaceOnUse" x1="-6.7802" y1="255.2197" x2="4.6197" y2="237.0097" gradientTransform="matrix(1 0 0 -1 104 292)">
	<stop  offset="0" style="stop-color:#ED2A26"/>
	<stop  offset="1" style="stop-color:#ED2926"/>
</linearGradient>
<path style="fill:url(#SVGID_00000103974645738951890510000018434180699141111693_);" d="M106.4,26.7c6.6,5.8,8.8,13.9,4.8,21.4
	l-28.4-7.8L106.4,26.7z"/>
<linearGradient id="SVGID_00000036935947579158820320000005629265542490080643_" gradientUnits="userSpaceOnUse" x1="-13.096" y1="249.9865" x2="0.2881" y2="228.6095" gradientTransform="matrix(1 0 0 -1 104 292)">
	<stop  offset="0" style="stop-color:#ED2926"/>
	<stop  offset="1" style="stop-color:#BE2126"/>
</linearGradient>
<polygon style="fill:url(#SVGID_00000036935947579158820320000005629265542490080643_);" points="111,48.1 111,63.1 83,55.4 
	83,40.5 "/>
<linearGradient id="SVGID_00000036248072819970909730000006568178471026118544_" gradientUnits="userSpaceOnUse" x1="-59.05" y1="184.1" x2="-52.05" y2="184.1" gradientTransform="matrix(1 0 0 -1 104 292)">
	<stop  offset="0" style="stop-color:#50B748"/>
	<stop  offset="1" style="stop-color:#25572B"/>
</linearGradient>
<path style="fill:url(#SVGID_00000036248072819970909730000006568178471026118544_);" d="M45,117V84.7c0,5.2,2.5,10.1,7,14.1v32.3
	C47.5,127,45,122.1,45,117z"/>
<linearGradient id="SVGID_00000152226765188968117540000011080325708960981671_" gradientUnits="userSpaceOnUse" x1="-57.5497" y1="213.0808" x2="-45.6597" y2="203.6508" gradientTransform="matrix(1 0 0 -1 104 292)">
	<stop  offset="0" style="stop-color:#50B748"/>
	<stop  offset="1" style="stop-color:#3E7A41"/>
</linearGradient>
<path style="fill:url(#SVGID_00000152226765188968117540000011080325708960981671_);" d="M47.1,78.1L47.1,78.1l28.4,7.7L51.9,99.4
	C45.2,93.7,43,85.6,47.1,78.1z"/>
<linearGradient id="SVGID_00000041258577258645843710000010574721343067583141_" gradientUnits="userSpaceOnUse" x1="-24.021" y1="188.372" x2="-54.0134" y2="180.5412" gradientTransform="matrix(1 0 0 -1 104 292)">
	<stop  offset="0" style="stop-color:#50B748"/>
	<stop  offset="1" style="stop-color:#3E7A41"/>
</linearGradient>
<polygon style="fill:url(#SVGID_00000041258577258645843710000010574721343067583141_);" points="76,85 76,116.8 52,130.6 52,98.9 
	"/>
<linearGradient id="SVGID_00000173145912401342822660000014600360295276280465_" gradientUnits="userSpaceOnUse" x1="-5.5009" y1="164.89" x2="-22.6016" y2="173.9941" gradientTransform="matrix(1 0 0 -1 104 292)">
	<stop  offset="5.000000e-02" style="stop-color:#EEE316"/>
	<stop  offset="1" style="stop-color:#D2691C"/>
</linearGradient>
<path style="fill:url(#SVGID_00000173145912401342822660000014600360295276280465_);" d="M104,109v15.4c-4.1,7.6-13.5,12.7-24,13.9
	v-15.4C90.5,121.7,99.9,116.6,104,109z"/>
<linearGradient id="SVGID_00000108987176858387851360000002580189532769580688_" gradientUnits="userSpaceOnUse" x1="-34.05" y1="171.9" x2="-24.05" y2="171.9" gradientTransform="matrix(1 0 0 -1 104 292)">
	<stop  offset="5.000000e-02" style="stop-color:#EEE316"/>
	<stop  offset="1" style="stop-color:#D2691C"/>
</linearGradient>
<polygon style="fill:url(#SVGID_00000108987176858387851360000002580189532769580688_);" points="80,123.2 80,138.5 70,117 
	70,101.7 "/>
<linearGradient id="SVGID_00000078764945661144596430000010137196081305260416_" gradientUnits="userSpaceOnUse" x1="-11.1796" y1="175.0854" x2="-37.7397" y2="201.4555" gradientTransform="matrix(1 0 0 -1 104 292)">
	<stop  offset="5.000000e-02" style="stop-color:#EEE316"/>
	<stop  offset="1" style="stop-color:#D2691C"/>
</linearGradient>
<path style="fill:url(#SVGID_00000078764945661144596430000010137196081305260416_);" d="M75.4,101.5l28.4,7.8
	c-4,7.4-13.2,12.4-23.6,13.6L75.4,101.5z"/>
<linearGradient id="SVGID_00000103238800193623668240000009364062896972574134_" gradientUnits="userSpaceOnUse" x1="-39.8838" y1="168.5" x2="-23.3303" y2="168.5" gradientTransform="matrix(1 0 0 -1 104 292)">
	<stop  offset="0" style="stop-color:#F28420"/>
	<stop  offset="1" style="stop-color:#D2691C"/>
</linearGradient>
<path style="fill:url(#SVGID_00000103238800193623668240000009364062896972574134_);" d="M80,116.5v21.3c-1.6,0.2-3.1,0.3-4.7,0.3
	c-3.6,0-7.2-0.5-10.7-1.4c-4.6-1.2-8.9-3.4-12.6-6.5v-21.3c3.6,3.1,7.9,5.3,12.6,6.5c3.5,0.9,7.1,1.4,10.7,1.4
	C76.8,116.8,78.4,116.7,80,116.5z"/>
<linearGradient id="SVGID_00000020378415484297549340000003597734072483648165_" gradientUnits="userSpaceOnUse" x1="-27.7801" y1="196.1852" x2="-39.2101" y2="177.6151" gradientTransform="matrix(1 0 0 -1 104 292)">
	<stop  offset="0" style="stop-color:#F28420"/>
	<stop  offset="1" style="stop-color:#D2691C"/>
</linearGradient>
<path style="fill:url(#SVGID_00000020378415484297549340000003597734072483648165_);" d="M75.4,95l4.8,21.4
	c-1.6,0.2-3.2,0.3-4.8,0.2c-3.7,0-7.3-0.5-10.9-1.4c-4.7-1.2-9.1-3.4-12.8-6.6L75.4,95z"/>
<rect x="-96.3" y="-195.7" style="fill:none;" width="33.7" height="7"/>
<g>
	<g>
		<path class="st42" d="M133.9,123.6l3.2-0.5h0.6l3.5,0.5v1.3h-7.4V123.6z M143.4,103.3h1.9l7.4,21.6h-3l-6.4-19.2h0.7l-6.5,19.2
			H136L143.4,103.3z M139.7,116.4h8.6l0.5,1.5h-9.7L139.7,116.4z M146,123.6l4-0.5h0.6l4,0.5v1.3H146V123.6z"/>
		<path class="st42" d="M156.4,104.7v-1.3h4.5v1.8h-0.3L156.4,104.7z M161.2,123.1l4.2,0.5v1.3h-9v-1.3l4.2-0.5H161.2z M159.4,113.4
			c0-3.3,0-6.6-0.1-9.9h3.1c-0.1,3.2-0.1,6.6-0.1,9.9v2c0,3.3,0,6.3,0.1,9.6h-3.1c0.1-3.2,0.1-6.6,0.1-9.9V113.4z M164,116.4h-3.2
			v-1.5h3.6c3.9,0,5.5-2.1,5.5-5.1c0-3.1-1.7-4.9-5.6-4.9h-3.5v-1.5h4.1c5.3,0,8,2.6,8,6.4C173,113.4,170.5,116.4,164,116.4z"/>
		<path class="st42" d="M175.2,104.7v-1.3h4.5v1.8h-0.3L175.2,104.7z M180,123.1l4.2,0.5v1.3h-9v-1.3l4.2-0.5H180z M178.2,113.4
			c0-3.3,0-6.6-0.1-9.9h3.1c-0.1,3.2-0.1,6.6-0.1,9.9v2c0,3.3,0,6.3,0.1,9.6h-3.1c0.1-3.2,0.1-6.6,0.1-9.9V113.4z M182.8,116.4h-3.2
			v-1.5h3.6c3.9,0,5.5-2.1,5.5-5.1c0-3.1-1.7-4.9-5.6-4.9h-3.5v-1.5h4.1c5.3,0,8,2.6,8,6.4C191.8,113.4,189.3,116.4,182.8,116.4z"/>
		<path class="st42" d="M194,104.7v-1.3h9v1.3l-4.2,0.5h-0.6L194,104.7z M198.5,123.1v1.8H194v-1.3l4.2-0.5H198.5z M196.9,103.5h3.1
			c-0.1,3.3-0.1,6.6-0.1,9.9v2.2c0,2.7,0,6,0.1,9.3h-3.1c0.1-3.3,0.1-6.6,0.1-9.9v-1.6C197,110,197,106.7,196.9,103.5z M210.2,118.9
			l-0.3,6h-11.4v-1.6h10.3l-1.8,1.6l1.3-6H210.2z"/>
		<path class="st42" d="M213.1,104.7v-1.3h9v1.3l-4.2,0.5h-0.6L213.1,104.7z M217.9,123.1l4.2,0.5v1.3h-9v-1.3l4.2-0.5H217.9z
			 M216.1,113.4c0-3.3,0-6.6-0.1-9.9h3.1c-0.1,3.2-0.1,6.6-0.1,9.9v1.6c0,3.3,0,6.6,0.1,9.9H216c0.1-3.2,0.1-6.6,0.1-9.9V113.4z"/>
		<path class="st42" d="M241.7,121.7v1.8l-2,0.4l0.8-4.7h2l-0.1,4.6c-2,1.1-4.2,1.5-6.5,1.5c-6.5,0-10.8-4.7-10.8-11.2
			c0-6.4,4.5-11.2,10.8-11.2c1.7,0,4,0.3,6.2,1.5l0.1,4.6h-2l-0.8-4.7l2,0.4v2c-1.8-1.7-3.6-2.2-5.2-2.2c-4.3,0-7.8,3.4-7.8,9.6
			c0,6.2,3.1,9.6,7.6,9.6C237.8,123.8,239.8,123.2,241.7,121.7z"/>
		<path class="st42" d="M243.9,123.6l3.2-0.5h0.6l3.5,0.5v1.3h-7.4V123.6z M253.4,103.3h1.9l7.4,21.6h-3l-6.4-19.2h0.7l-6.5,19.2
			H246L253.4,103.3z M249.7,116.4h8.6l0.5,1.5h-9.7L249.7,116.4z M256,123.6l4-0.5h0.6l4,0.5v1.3H256V123.6z"/>
		<path class="st42" d="M266.9,105.1l1.4-1.6l-1,5.7h-1.8l0.3-5.7h17.5l0.3,5.7h-1.8l-1-5.7l1.4,1.6H266.9z M274.9,123.1l4.5,0.5
			v1.3h-9.6v-1.3l4.5-0.5H274.9z M273.1,113.4c0-3.3,0-6.6-0.1-9.9h3.1c-0.1,3.2-0.1,6.6-0.1,9.9v1.6c0,3.3,0,6.6,0.1,9.9H273
			c0.1-3.2,0.1-6.6,0.1-9.9V113.4z"/>
		<path class="st42" d="M285.6,104.7v-1.3h9v1.3l-4.2,0.5h-0.6L285.6,104.7z M290.4,123.1l4.2,0.5v1.3h-9v-1.3l4.2-0.5H290.4z
			 M288.7,113.4c0-3.3,0-6.6-0.1-9.9h3.1c-0.1,3.2-0.1,6.6-0.1,9.9v1.6c0,3.3,0,6.6,0.1,9.9h-3.1c0.1-3.2,0.1-6.6,0.1-9.9V113.4z"/>
		<path class="st42" d="M317.1,114.2c0,7-4.8,11.2-9.8,11.2s-9.8-3.9-9.8-11.2c0-7,4.9-11.2,9.8-11.2S317.1,106.9,317.1,114.2z
			 M307.4,123.8c4.5,0,6.4-4.8,6.4-9.6c0-4.8-1.9-9.6-6.4-9.6s-6.4,4.8-6.4,9.6C300.9,119,302.8,123.8,307.4,123.8z"/>
		<path class="st42" d="M319.9,123.6l3.4-0.5h0.6l3.7,0.5v1.3h-7.7V123.6z M322,104.5l2,0.8l-3.8-0.5v-1.3h4.8l13.3,18.3v3.4h-1
			L322,104.5z M322.7,103.5l1.6,1.3v20.2h-1.6V103.5z M333.2,103.5h7.7v1.3l-3.2,0.5h-0.6l-3.8-0.5V103.5z M336.6,103.5h1.6v21.7
			l-1.6-1.6V103.5z"/>
	</g>
</g>
</svg>
